<svg width="327" height="128" viewBox="0 0 327 128" fill="none" xmlns="http://www.w3.org/2000/svg">
<g clip-path="url(#clip0_751_30326)" filter="url(#filter0_d_751_30326)">
<path d="M166.539 2.38629C165.033 0.860615 162.98 0 160.836 0C149.296 0 137.666 0 126.127 0C124.005 0 121.97 0.842855 120.47 2.34315C112.261 10.552 104.052 18.7609 95.8431 26.9698C94.3429 28.4701 93.5 30.5049 93.5 32.6266C93.5 44.1788 93.5 55.8212 93.5 67.3734C93.5 69.4951 94.3429 71.5299 95.8431 73.0302C104.052 81.2391 112.261 89.448 120.47 97.6569C121.97 99.1571 124.005 100 126.127 100C137.679 100 149.321 100 160.873 100C162.995 100 165.03 99.1571 166.53 97.6569C174.739 89.448 182.948 81.2391 191.157 73.0302C192.657 71.5299 193.5 69.4951 193.5 67.3734C193.5 55.8334 193.5 44.2032 193.5 32.663C193.5 30.5198 192.64 28.4666 191.114 26.961C182.815 18.7694 174.623 10.5779 166.539 2.38629Z" fill="#E8F6FF"/>
<path d="M182.402 32.3859C180.896 30.8607 178.843 30 176.699 30C167.908 30 159.055 30 150.264 30C148.142 30 146.108 30.8429 144.607 32.3431C138.353 38.5978 132.098 44.8525 125.843 51.1072C124.343 52.6075 123.5 54.6423 123.5 56.764C123.5 65.5672 123.5 74.4328 123.5 83.236C123.5 85.3577 124.343 87.3925 125.843 88.8928C132.098 95.1475 138.353 101.402 144.607 107.657C146.108 109.157 148.142 110 150.264 110C159.067 110 167.933 110 176.736 110C178.858 110 180.892 109.157 182.393 107.657C188.647 101.402 194.902 95.1475 201.157 88.8928C202.657 87.3925 203.5 85.3577 203.5 83.236C203.5 74.4449 203.5 65.5917 203.5 56.8004C203.5 54.6572 202.639 52.6041 201.115 51.0981C194.799 44.8607 188.562 38.6233 182.402 32.3859Z" fill="#F93C00"/>
<path d="M185.877 23.0503C184.564 21.7375 182.784 21 180.927 21H180.859H180.791H180.723H180.655H180.587H180.519H180.451H180.382H180.314H180.246H180.178H180.11H180.042H179.974H179.906H179.838H179.77H179.702H179.634H179.566H179.497H179.429H179.361H179.293H179.225H179.157H179.089H179.021H178.953H178.885H178.817H178.749H178.681H178.613H178.544H178.476H178.408H178.34H178.272H178.204H178.136H178.068H178H177.932H177.864H177.796H177.728H177.659H177.591H177.523H177.455H177.387H177.319H177.251H177.183H177.115H177.047H176.979H176.911H176.843H176.774H176.706H176.638H176.57H176.502H176.434H176.366H176.298H176.23H176.162H176.094H176.026H175.958H175.89H175.821H175.753H175.685H175.617H175.549H175.481H175.413H175.345H175.277H175.209H175.141H175.073H175.005H174.936H174.868H174.8H174.732H174.664H174.596H174.528H174.46H174.392H174.324H174.256H174.188H174.12H174.052H173.983H173.915H173.847H173.779H173.711H173.643H173.575H173.507H173.439H173.371H173.303H173.235H173.167H173.098H173.03H172.962H172.894H172.826H172.758H172.69H172.622H172.554H172.486H172.418H172.35H172.282H172.214H172.145H172.077H172.009H171.941H171.873H171.805H171.737H171.669H171.601H171.533H171.465H171.397H171.329H171.26H171.192H171.124H171.056H170.988H170.92H170.852H170.784H170.716H170.648H170.58H170.512H170.444H170.376H170.307H170.239H170.171H170.103H170.035H169.967H169.899H169.831H169.763H169.695H169.627H169.559H169.491H169.422H169.354H169.286H169.218H169.15H169.082H169.014H168.946H168.878H168.81H168.742H168.674H168.606H168.538H168.469H168.401H168.333H168.265H168.197H168.129H168.061H167.993H167.925H167.857H167.789H167.721H167.653H167.584H167.516H167.448H167.38H167.312H167.244H167.176H167.108H167.04H166.972H166.904H166.836H166.768H166.699H166.631H166.563H166.495H166.427H166.359H166.291H166.223H166.155H166.087H166.019H165.951H165.883H165.815H165.746H165.678H165.61H165.542H165.474H165.406H165.338H165.27H165.202H165.134H165.066H164.998H164.93H164.861H164.793H164.725H164.657H164.589H164.521H164.453H164.385H164.317H164.249H164.181H164.113H164.045H163.977H163.908H163.84H163.772H163.704H163.636H163.568H163.5H163.432H163.364H163.296H163.228H163.16H163.092H163.023H162.955H162.887H162.819H162.751H162.683H162.615H162.547H162.479H162.411H162.343H162.275H162.207H162.139H162.07H162.002H161.934H161.866H161.798H161.73H161.662H161.594H161.526H161.458H161.39H161.322H161.254H161.185H161.117H161.049H160.981H160.913H160.845H160.777H160.709H160.641H160.573H160.505H160.437H160.369H160.301H160.232H160.164H160.096H160.028H159.96H159.892H159.824H159.756H159.688H159.62H159.552H159.484H159.416H159.347H159.279H159.211H159.143H159.075H159.007H158.939H158.871H158.803H158.735H158.667H158.599H158.531H158.463H158.394H158.326H158.258H158.19H158.122H158.054H157.986H157.918H157.85H157.782H157.714H157.646H157.578H157.509H157.441H157.373H157.305H157.237H157.169H157.101H157.033H156.965H156.897H156.829H156.761H156.693H156.624H156.556H156.488H156.42H156.352H156.284H156.216H156.148H156.08H156.012H155.944H155.876H155.808H155.74H155.671H155.603H155.535H155.467H155.399H155.331H155.263H155.195H155.127H155.059H154.991H154.923H154.855H154.786H154.718H154.65H154.582H154.514H154.446H154.378H154.31H154.242H154.174H154.106H154.038H153.97H153.902H153.833H153.765H153.697H153.629H153.561H153.493H153.425H153.357H153.289H153.221H153.153H153.085H153.017H152.948H152.88H152.812H152.744H152.676H152.608H152.54H152.472H152.404H152.336H152.268H152.2H152.132H152.064H151.995H151.927H151.859H151.791H151.723H151.655H151.587H151.519H151.451H151.383H151.315H151.247H151.179H151.11H151.042H150.974H150.906H150.838H150.77H150.702H150.634H150.566H150.498H150.43H150.362H150.294H150.226H150.157H150.089H150.021H149.953H149.885H149.817H149.749H149.681H149.613H149.545H149.477H149.409H149.341H149.272H149.204H149.136H149.068H149H148.932H148.864H148.796H148.728H148.66H148.592H148.524H148.456H148.387H148.319H148.251H148.183H148.115H148.047H147.979H147.911H147.843H147.775H147.707H147.639H147.571H147.503H147.434H147.366H147.298H147.23H147.162H147.094H147.026H146.958H146.89H146.822H146.754H146.686H146.618H146.549H146.481H146.413H146.345H146.277H146.209H146.141H146.073C144.216 21 142.436 21.7375 141.123 23.0503L116.55 47.6232C115.238 48.936 114.5 50.7165 114.5 52.573V52.641V52.7091V52.7772V52.8453V52.9133V52.9814V53.0495V53.1176V53.1856V53.2537V53.3218V53.3899V53.4579V53.526V53.5941V53.6622V53.7302V53.7983V53.8664V53.9345V54.0025V54.0706V54.1387V54.2068V54.2748V54.3429V54.411V54.479V54.5471V54.6152V54.6833V54.7513V54.8194V54.8875V54.9556V55.0236V55.0917V55.1598V55.2279V55.2959V55.364V55.4321V55.5002V55.5682V55.6363V55.7044V55.7725V55.8405V55.9086V55.9767V56.0448V56.1128V56.1809V56.249V56.3171V56.3851V56.4532V56.5213V56.5894V56.6574V56.7255V56.7936V56.8616V56.9297V56.9978V57.0659V57.1339V57.202V57.2701V57.3382V57.4062V57.4743V57.5424V57.6105V57.6785V57.7466V57.8147V57.8828V57.9508V58.0189V58.087V58.1551V58.2231V58.2912V58.3593V58.4274V58.4954V58.5635V58.6316V58.6997V58.7677V58.8358V58.9039V58.972V59.04V59.1081V59.1762V59.2443V59.3123V59.3804V59.4485V59.5165V59.5846V59.6527V59.7208V59.7888V59.8569V59.925V59.9931V60.0611V60.1292V60.1973V60.2654V60.3334V60.4015V60.4696V60.5377V60.6057V60.6738V60.7419V60.81V60.878V60.9461V61.0142V61.0823V61.1503V61.2184V61.2865V61.3546V61.4226V61.4907V61.5588V61.6269V61.6949V61.763V61.8311V61.8992V61.9672V62.0353V62.1034V62.1714V62.2395V62.3076V62.3757V62.4437V62.5118V62.5799V62.648V62.716V62.7841V62.8522V62.9203V62.9883V63.0564V63.1245V63.1926V63.2606V63.3287V63.3968V63.4649V63.5329V63.601V63.6691V63.7372V63.8052V63.8733V63.9414V64.0095V64.0775V64.1456V64.2137V64.2818V64.3498V64.4179V64.486V64.5541V64.6221V64.6902V64.7583V64.8263V64.8944V64.9625V65.0306V65.0986V65.1667V65.2348V65.3029V65.3709V65.439V65.5071V65.5752V65.6432V65.7113V65.7794V65.8475V65.9155V65.9836V66.0517V66.1198V66.1878V66.2559V66.324V66.3921V66.4601V66.5282V66.5963V66.6644V66.7324V66.8005V66.8686V66.9367V67.0047V67.0728V67.1409V67.209V67.277V67.3451V67.4132V67.4812V67.5493V67.6174V67.6855V67.7535V67.8216V67.8897V67.9578V68.0258V68.0939V68.162V68.2301V68.2981V68.3662V68.4343V68.5024V68.5704V68.6385V68.7066V68.7747V68.8427V68.9108V68.9789V69.047V69.115V69.1831V69.2512V69.3193V69.3873V69.4554V69.5235V69.5915V69.6596V69.7277V69.7958V69.8638V69.9319V70V70.0681V70.1361V70.2042V70.2723V70.3404V70.4084V70.4765V70.5446V70.6127V70.6807V70.7488V70.8169V70.885V70.953V71.0211V71.0892V71.1573V71.2253V71.2934V71.3615V71.4296V71.4976V71.5657V71.6338V71.7019V71.7699V71.838V71.9061V71.9742V72.0422V72.1103V72.1784V72.2464V72.3145V72.3826V72.4507V72.5187V72.5868V72.6549V72.723V72.791V72.8591V72.9272V72.9953V73.0633V73.1314V73.1995V73.2676V73.3356V73.4037V73.4718V73.5399V73.6079V73.676V73.7441V73.8122V73.8802V73.9483V74.0164V74.0845V74.1525V74.2206V74.2887V74.3568V74.4248V74.4929V74.561V74.6291V74.6971V74.7652V74.8333V74.9013V74.9694V75.0375V75.1056V75.1736V75.2417V75.3098V75.3779V75.4459V75.514V75.5821V75.6502V75.7182V75.7863V75.8544V75.9225V75.9905V76.0586V76.1267V76.1948V76.2628V76.3309V76.399V76.4671V76.5351V76.6032V76.6713V76.7394V76.8074V76.8755V76.9436V77.0117V77.0797V77.1478V77.2159V77.284V77.352V77.4201V77.4882V77.5562V77.6243V77.6924V77.7605V77.8285V77.8966V77.9647V78.0328V78.1008V78.1689V78.237V78.3051V78.3731V78.4412V78.5093V78.5774V78.6454V78.7135V78.7816V78.8497V78.9177V78.9858V79.0539V79.122V79.19V79.2581V79.3262V79.3943V79.4623V79.5304V79.5985V79.6665V79.7346V79.8027V79.8708V79.9388V80.0069V80.075V80.1431V80.2111V80.2792V80.3473V80.4154V80.4834V80.5515V80.6196V80.6877V80.7557V80.8238V80.8919V80.96V81.028V81.0961V81.1642V81.2323V81.3003V81.3684V81.4365V81.5046V81.5726V81.6407V81.7088V81.7769V81.8449V81.913V81.9811V82.0492V82.1172V82.1853V82.2534V82.3214V82.3895V82.4576V82.5257V82.5937V82.6618V82.7299V82.798V82.866V82.9341V83.0022V83.0703V83.1383V83.2064V83.2745V83.3426V83.4106V83.4787V83.5468V83.6149V83.6829V83.751V83.8191V83.8872V83.9552V84.0233V84.0914V84.1595V84.2275V84.2956V84.3637V84.4318V84.4998V84.5679V84.636V84.704V84.7721V84.8402V84.9083V84.9763V85.0444V85.1125V85.1806V85.2486V85.3167V85.3848V85.4529V85.5209V85.589V85.6571V85.7252V85.7932V85.8613V85.9294V85.9975V86.0655V86.1336V86.2017V86.2698V86.3378V86.4059V86.474V86.5421V86.6101V86.6782V86.7463V86.8144V86.8824V86.9505V87.0186V87.0867V87.1547V87.2228V87.2909V87.3589V87.427C114.5 89.2835 115.237 91.064 116.55 92.3768L141.123 116.95C142.436 118.262 144.216 119 146.073 119H146.141H146.209H146.277H146.345H146.413H146.481H146.549H146.618H146.686H146.754H146.822H146.89H146.958H147.026H147.094H147.162H147.23H147.298H147.366H147.434H147.503H147.571H147.639H147.707H147.775H147.843H147.911H147.979H148.047H148.115H148.183H148.251H148.319H148.387H148.456H148.524H148.592H148.66H148.728H148.796H148.864H148.932H149H149.068H149.136H149.204H149.272H149.341H149.409H149.477H149.545H149.613H149.681H149.749H149.817H149.885H149.953H150.021H150.089H150.157H150.226H150.294H150.362H150.43H150.498H150.566H150.634H150.702H150.77H150.838H150.906H150.974H151.042H151.11H151.179H151.247H151.315H151.383H151.451H151.519H151.587H151.655H151.723H151.791H151.859H151.927H151.995H152.064H152.132H152.2H152.268H152.336H152.404H152.472H152.54H152.608H152.676H152.744H152.812H152.88H152.948H153.017H153.085H153.153H153.221H153.289H153.357H153.425H153.493H153.561H153.629H153.697H153.765H153.833H153.902H153.97H154.038H154.106H154.174H154.242H154.31H154.378H154.446H154.514H154.582H154.65H154.718H154.786H154.855H154.923H154.991H155.059H155.127H155.195H155.263H155.331H155.399H155.467H155.535H155.603H155.671H155.74H155.808H155.876H155.944H156.012H156.08H156.148H156.216H156.284H156.352H156.42H156.488H156.556H156.624H156.693H156.761H156.829H156.897H156.965H157.033H157.101H157.169H157.237H157.305H157.373H157.441H157.509H157.578H157.646H157.714H157.782H157.85H157.918H157.986H158.054H158.122H158.19H158.258H158.326H158.394H158.462H158.531H158.599H158.667H158.735H158.803H158.871H158.939H159.007H159.075H159.143H159.211H159.279H159.347H159.416H159.484H159.552H159.62H159.688H159.756H159.824H159.892H159.96H160.028H160.096H160.164H160.232H160.301H160.369H160.437H160.505H160.573H160.641H160.709H160.777H160.845H160.913H160.981H161.049H161.117H161.185H161.254H161.322H161.39H161.458H161.526H161.594H161.662H161.73H161.798H161.866H161.934H162.002H162.07H162.139H162.207H162.275H162.343H162.411H162.479H162.547H162.615H162.683H162.751H162.819H162.887H162.955H163.023H163.092H163.16H163.228H163.296H163.364H163.432H163.5H163.568H163.636H163.704H163.772H163.84H163.908H163.977H164.045H164.113H164.181H164.249H164.317H164.385H164.453H164.521H164.589H164.657H164.725H164.793H164.861H164.93H164.998H165.066H165.134H165.202H165.27H165.338H165.406H165.474H165.542H165.61H165.678H165.746H165.815H165.883H165.951H166.019H166.087H166.155H166.223H166.291H166.359H166.427H166.495H166.563H166.631H166.699H166.768H166.836H166.904H166.972H167.04H167.108H167.176H167.244H167.312H167.38H167.448H167.516H167.584H167.653H167.721H167.789H167.857H167.925H167.993H168.061H168.129H168.197H168.265H168.333H168.401H168.469H168.537H168.606H168.674H168.742H168.81H168.878H168.946H169.014H169.082H169.15H169.218H169.286H169.354H169.422H169.491H169.559H169.627H169.695H169.763H169.831H169.899H169.967H170.035H170.103H170.171H170.239H170.307H170.376H170.444H170.512H170.58H170.648H170.716H170.784H170.852H170.92H170.988H171.056H171.124H171.192H171.26H171.329H171.397H171.465H171.533H171.601H171.669H171.737H171.805H171.873H171.941H172.009H172.077H172.145H172.214H172.282H172.35H172.418H172.486H172.554H172.622H172.69H172.758H172.826H172.894H172.962H173.03H173.098H173.167H173.235H173.303H173.371H173.439H173.507H173.575H173.643H173.711H173.779H173.847H173.915H173.983H174.052H174.12H174.188H174.256H174.324H174.392H174.46H174.528H174.596H174.664H174.732H174.8H174.868H174.936H175.005H175.073H175.141H175.209H175.277H175.345H175.413H175.481H175.549H175.617H175.685H175.753H175.821H175.89H175.958H176.026H176.094H176.162H176.23H176.298H176.366H176.434H176.502H176.57H176.638H176.706H176.774H176.843H176.911H176.979H177.047H177.115H177.183H177.251H177.319H177.387H177.455H177.523H177.591H177.659H177.728H177.796H177.864H177.932H178H178.068H178.136H178.204H178.272H178.34H178.408H178.476H178.544H178.612H178.681H178.749H178.817H178.885H178.953H179.021H179.089H179.157H179.225H179.293H179.361H179.429H179.497H179.566H179.634H179.702H179.77H179.838H179.906H179.974H180.042H180.11H180.178H180.246H180.314H180.382H180.451H180.519H180.587H180.655H180.723H180.791H180.859H180.927C182.784 119 184.564 118.262 185.877 116.95V23.0503ZM185.877 23.0503L186.584 22.3431L185.877 23.0503ZM210.402 92.4248L210.45 92.3768L210.402 92.4248ZM210.402 92.4248L210.354 92.4728M210.402 92.4248L210.354 92.4728M210.354 92.4728L210.306 92.5208M210.354 92.4728L210.306 92.5208M210.306 92.5208L210.258 92.5688M210.306 92.5208L210.258 92.5688M210.258 92.5688L210.21 92.6168M210.258 92.5688L210.21 92.6168M210.21 92.6168L210.162 92.6647M210.21 92.6168L210.162 92.6647M210.162 92.6647L210.114 92.7127M210.162 92.6647L210.114 92.7127M210.114 92.7127L210.066 92.7607M210.114 92.7127L210.066 92.7607M210.066 92.7607L210.018 92.8087M210.066 92.7607L210.018 92.8087M210.018 92.8087L209.97 92.8567M210.018 92.8087L209.97 92.8567M209.97 92.8567L209.922 92.9047M209.97 92.8567L209.922 92.9047M209.922 92.9047L209.874 92.9527M209.922 92.9047L209.874 92.9527M209.874 92.9527L209.826 93.0007M209.874 92.9527L209.826 93.0007M209.826 93.0007L209.778 93.0487M209.826 93.0007L209.778 93.0487M209.778 93.0487L209.73 93.0967M209.778 93.0487L209.73 93.0967M209.73 93.0967L209.682 93.1447M209.73 93.0967L209.682 93.1447M209.682 93.1447L209.634 93.1927M209.682 93.1447L209.634 93.1927M209.634 93.1927L209.586 93.2407M209.634 93.1927L209.586 93.2407M209.586 93.2407L209.538 93.2887M209.586 93.2407L209.538 93.2887M209.538 93.2887L209.49 93.3367M209.538 93.2887L209.49 93.3367M209.49 93.3367L209.442 93.3847M209.49 93.3367L209.442 93.3847M209.442 93.3847L209.394 93.4326M209.442 93.3847L209.394 93.4326M209.394 93.4326L209.346 93.4806M209.394 93.4326L209.346 93.4806M209.346 93.4806L209.298 93.5286M209.346 93.4806L209.298 93.5286M209.298 93.5286L209.25 93.5766M209.298 93.5286L209.25 93.5766M209.25 93.5766L209.202 93.6246M209.25 93.5766L209.202 93.6246M209.202 93.6246L209.154 93.6726M209.202 93.6246L209.154 93.6726M209.154 93.6726L209.106 93.7206M209.154 93.6726L209.106 93.7206M209.106 93.7206L209.058 93.7686M209.106 93.7206L209.058 93.7686M209.058 93.7686L209.01 93.8166M209.058 93.7686L209.01 93.8166M209.01 93.8166L208.962 93.8646M209.01 93.8166L208.962 93.8646M208.962 93.8646L208.914 93.9126M208.962 93.8646L208.914 93.9126M208.914 93.9126L208.866 93.9606M208.914 93.9126L208.866 93.9606M208.866 93.9606L208.818 94.0086M208.866 93.9606L208.818 94.0086M208.818 94.0086L208.77 94.0566M208.818 94.0086L208.77 94.0566M208.77 94.0566L208.722 94.1046M208.77 94.0566L208.722 94.1046M208.722 94.1046L208.674 94.1526M208.722 94.1046L208.674 94.1526M208.674 94.1526L208.626 94.2006M208.674 94.1526L208.626 94.2006M208.626 94.2006L208.578 94.2486M208.626 94.2006L208.578 94.2486M208.578 94.2486L208.53 94.2965M208.578 94.2486L208.53 94.2965M208.53 94.2965L208.482 94.3445M208.53 94.2965L208.482 94.3445M208.482 94.3445L208.434 94.3925M208.482 94.3445L208.434 94.3925M208.434 94.3925L208.386 94.4405M208.434 94.3925L208.386 94.4405M208.386 94.4405L208.338 94.4885M208.386 94.4405L208.338 94.4885M208.338 94.4885L208.29 94.5365M208.338 94.4885L208.29 94.5365M208.29 94.5365L208.242 94.5845M208.29 94.5365L208.242 94.5845M208.242 94.5845L208.194 94.6325M208.242 94.5845L208.194 94.6325M208.194 94.6325L208.146 94.6805M208.194 94.6325L208.146 94.6805M208.146 94.6805L208.098 94.7285M208.146 94.6805L208.098 94.7285M208.098 94.7285L208.05 94.7765M208.098 94.7285L208.05 94.7765M208.05 94.7765L208.002 94.8245M208.05 94.7765L208.002 94.8245M208.002 94.8245L207.954 94.8725M208.002 94.8245L207.954 94.8725M207.954 94.8725L207.906 94.9205M207.954 94.8725L207.906 94.9205M207.906 94.9205L207.858 94.9685M207.906 94.9205L207.858 94.9685M207.858 94.9685L207.81 95.0165M207.858 94.9685L207.81 95.0165M207.81 95.0165L207.762 95.0644M207.81 95.0165L207.762 95.0644M207.762 95.0644L207.714 95.1124M207.762 95.0644L207.714 95.1124M207.714 95.1124L207.666 95.1604M207.714 95.1124L207.666 95.1604M207.666 95.1604L207.618 95.2084M207.666 95.1604L207.618 95.2084M207.618 95.2084L207.57 95.2564M207.618 95.2084L207.57 95.2564M207.57 95.2564L207.522 95.3044M207.57 95.2564L207.522 95.3044M207.522 95.3044L207.474 95.3524M207.522 95.3044L207.474 95.3524M207.474 95.3524L207.426 95.4004M207.474 95.3524L207.426 95.4004M207.426 95.4004L207.378 95.4484M207.426 95.4004L207.378 95.4484M207.378 95.4484L207.33 95.4964M207.378 95.4484L207.33 95.4964M207.33 95.4964L207.282 95.5444M207.33 95.4964L207.282 95.5444M207.282 95.5444L207.234 95.5924M207.282 95.5444L207.234 95.5924M207.234 95.5924L207.186 95.6404M207.234 95.5924L207.186 95.6404M207.186 95.6404L207.138 95.6884M207.186 95.6404L207.138 95.6884M207.138 95.6884L207.09 95.7364M207.138 95.6884L207.09 95.7364M207.09 95.7364L207.042 95.7844M207.09 95.7364L207.042 95.7844M207.042 95.7844L206.994 95.8324M207.042 95.7844L206.994 95.8324M206.994 95.8324L206.946 95.8803M206.994 95.8324L206.946 95.8803M206.946 95.8803L206.898 95.9283M206.946 95.8803L206.898 95.9283M206.898 95.9283L206.85 95.9763M206.898 95.9283L206.85 95.9763M206.85 95.9763L206.802 96.0243M206.85 95.9763L206.802 96.0243M206.802 96.0243L206.754 96.0723M206.802 96.0243L206.754 96.0723M206.754 96.0723L206.706 96.1203M206.754 96.0723L206.706 96.1203M206.706 96.1203L206.658 96.1683M206.706 96.1203L206.658 96.1683M206.658 96.1683L206.61 96.2163M206.658 96.1683L206.61 96.2163M206.61 96.2163L206.562 96.2643M206.61 96.2163L206.562 96.2643M206.562 96.2643L206.514 96.3123M206.562 96.2643L206.514 96.3123M206.514 96.3123L206.466 96.3603M206.514 96.3123L206.466 96.3603M206.466 96.3603L206.418 96.4083M206.466 96.3603L206.418 96.4083M206.418 96.4083L206.37 96.4563M206.418 96.4083L206.37 96.4563M206.37 96.4563L206.322 96.5043M206.37 96.4563L206.322 96.5043M206.322 96.5043L206.274 96.5523M206.322 96.5043L206.274 96.5523M206.274 96.5523L206.226 96.6003M206.274 96.5523L206.226 96.6003M206.226 96.6003L206.178 96.6483M206.226 96.6003L206.178 96.6483M206.178 96.6483L206.13 96.6963M206.178 96.6483L206.13 96.6963M206.13 96.6963L206.082 96.7442M206.13 96.6963L206.082 96.7442M206.082 96.7442L206.034 96.7922M206.082 96.7442L206.034 96.7922M206.034 96.7922L205.986 96.8402M206.034 96.7922L205.986 96.8402M205.986 96.8402L205.938 96.8882M205.986 96.8402L205.938 96.8882M205.938 96.8882L205.89 96.9362M205.938 96.8882L205.89 96.9362M205.89 96.9362L205.842 96.9842M205.89 96.9362L205.842 96.9842M205.842 96.9842L205.794 97.0322M205.842 96.9842L205.794 97.0322M205.794 97.0322L205.746 97.0802M205.794 97.0322L205.746 97.0802M205.746 97.0802L205.698 97.1282M205.746 97.0802L205.698 97.1282M205.698 97.1282L205.65 97.1762M205.698 97.1282L205.65 97.1762M205.65 97.1762L205.602 97.2242M205.65 97.1762L205.602 97.2242M205.602 97.2242L205.554 97.2722M205.602 97.2242L205.554 97.2722M205.554 97.2722L205.506 97.3202M205.554 97.2722L205.506 97.3202M205.506 97.3202L205.458 97.3682M205.506 97.3202L205.458 97.3682M205.458 97.3682L205.41 97.4162M205.458 97.3682L205.41 97.4162M205.41 97.4162L205.362 97.4641M205.41 97.4162L205.362 97.4641M205.362 97.4641L205.314 97.5121M205.362 97.4641L205.314 97.5121M205.314 97.5121L205.266 97.5601M205.314 97.5121L205.266 97.5601M205.266 97.5601L205.218 97.6081M205.266 97.5601L205.218 97.6081M205.218 97.6081L205.17 97.6561M205.218 97.6081L205.17 97.6561M205.17 97.6561L205.122 97.7041M205.17 97.6561L205.122 97.7041M205.122 97.7041L205.074 97.7521M205.122 97.7041L205.074 97.7521M205.074 97.7521L205.026 97.8001M205.074 97.7521L205.026 97.8001M205.026 97.8001L204.978 97.8481M205.026 97.8001L204.978 97.8481M204.978 97.8481L204.93 97.8961M204.978 97.8481L204.93 97.8961M204.93 97.8961L204.882 97.9441M204.93 97.8961L204.882 97.9441M204.882 97.9441L204.834 97.9921M204.882 97.9441L204.834 97.9921M204.834 97.9921L204.786 98.0401M204.834 97.9921L204.786 98.0401M204.786 98.0401L204.738 98.0881M204.786 98.0401L204.738 98.0881M204.738 98.0881L204.69 98.1361M204.738 98.0881L204.69 98.1361M204.69 98.1361L204.642 98.1841M204.69 98.1361L204.642 98.1841M204.642 98.1841L204.594 98.2321M204.642 98.1841L204.594 98.2321M204.594 98.2321L204.546 98.2801M204.594 98.2321L204.546 98.2801M204.546 98.2801L204.498 98.328M204.546 98.2801L204.498 98.328M204.498 98.328L204.45 98.376M204.498 98.328L204.45 98.376M204.45 98.376L204.402 98.424M204.45 98.376L204.402 98.424M204.402 98.424L204.354 98.472M204.402 98.424L204.354 98.472M204.354 98.472L204.307 98.52M204.354 98.472L204.307 98.52M204.307 98.52L204.259 98.568M204.307 98.52L204.259 98.568M204.259 98.568L204.211 98.616M204.259 98.568L204.211 98.616M204.211 98.616L204.163 98.664M204.211 98.616L204.163 98.664M204.163 98.664L204.115 98.712M204.163 98.664L204.115 98.712M204.115 98.712L204.067 98.76M204.115 98.712L204.067 98.76M204.067 98.76L204.019 98.808M204.067 98.76L204.019 98.808M204.019 98.808L203.971 98.856M204.019 98.808L203.971 98.856M203.971 98.856L203.923 98.904M203.971 98.856L203.923 98.904M203.923 98.904L203.875 98.952M203.923 98.904L203.875 98.952M203.875 98.952L203.827 99M203.875 98.952L203.827 99M203.827 99L203.779 99.048M203.827 99L203.779 99.048M203.779 99.048L203.731 99.096M203.779 99.048L203.731 99.096M203.731 99.096L203.683 99.1439M203.731 99.096L203.683 99.1439M203.683 99.1439L203.635 99.1919M203.683 99.1439L203.635 99.1919M203.635 99.1919L203.587 99.2399M203.635 99.1919L203.587 99.2399M203.587 99.2399L203.539 99.2879M203.587 99.2399L203.539 99.2879M203.539 99.2879L203.491 99.3359M203.539 99.2879L203.491 99.3359M203.491 99.3359L203.443 99.3839M203.491 99.3359L203.443 99.3839M203.443 99.3839L203.395 99.4319M203.443 99.3839L203.395 99.4319M203.395 99.4319L203.347 99.4799M203.395 99.4319L203.347 99.4799M203.347 99.4799L203.299 99.5279M203.347 99.4799L203.299 99.5279M203.299 99.5279L203.251 99.5759M203.299 99.5279L203.251 99.5759M203.251 99.5759L203.203 99.6239M203.251 99.5759L203.203 99.6239M203.203 99.6239L203.155 99.6719M203.203 99.6239L203.155 99.6719M203.155 99.6719L203.107 99.7199M203.155 99.6719L203.107 99.7199M203.107 99.7199L203.059 99.7679M203.107 99.7199L203.059 99.7679M203.059 99.7679L203.011 99.8159M203.059 99.7679L203.011 99.8159M203.011 99.8159L202.963 99.8639M203.011 99.8159L202.963 99.8639M202.963 99.8639L202.915 99.9118M202.963 99.8639L202.915 99.9118M202.915 99.9118L202.867 99.9598M202.915 99.9118L202.867 99.9598M202.867 99.9598L202.819 100.008M202.867 99.9598L202.819 100.008M202.819 100.008L202.771 100.056M202.819 100.008L202.771 100.056M202.771 100.056L202.723 100.104M202.771 100.056L202.723 100.104M202.723 100.104L202.675 100.152M202.723 100.104L202.675 100.152M202.675 100.152L202.627 100.2M202.675 100.152L202.627 100.2M202.627 100.2L202.579 100.248M202.627 100.2L202.579 100.248M202.579 100.248L202.531 100.296M202.579 100.248L202.531 100.296M202.531 100.296L202.483 100.344M202.531 100.296L202.483 100.344M202.483 100.344L202.435 100.392M202.483 100.344L202.435 100.392M202.435 100.392L202.387 100.44M202.435 100.392L202.387 100.44M202.387 100.44L202.339 100.488M202.387 100.44L202.339 100.488M202.339 100.488L202.291 100.536M202.339 100.488L202.291 100.536M202.291 100.536L202.243 100.584M202.291 100.536L202.243 100.584M202.243 100.584L202.195 100.632M202.243 100.584L202.195 100.632M202.195 100.632L202.147 100.68M202.195 100.632L202.147 100.68M202.147 100.68L202.099 100.728M202.147 100.68L202.099 100.728M202.099 100.728L202.051 100.776M202.099 100.728L202.051 100.776M202.051 100.776L202.003 100.824M202.051 100.776L202.003 100.824M202.003 100.824L201.955 100.872M202.003 100.824L201.955 100.872M201.955 100.872L201.907 100.92M201.955 100.872L201.907 100.92M201.907 100.92L201.859 100.968M201.907 100.92L201.859 100.968M201.859 100.968L201.811 101.016M201.859 100.968L201.811 101.016M201.811 101.016L201.763 101.064M201.811 101.016L201.763 101.064M201.763 101.064L201.715 101.112M201.763 101.064L201.715 101.112M201.715 101.112L201.667 101.16M201.715 101.112L201.667 101.16M201.667 101.16L201.619 101.208M201.667 101.16L201.619 101.208M201.619 101.208L201.571 101.256M201.619 101.208L201.571 101.256M201.571 101.256L201.523 101.304M201.571 101.256L201.523 101.304M201.523 101.304L201.475 101.352M201.523 101.304L201.475 101.352M201.475 101.352L201.427 101.4M201.475 101.352L201.427 101.4M201.427 101.4L201.379 101.448M201.427 101.4L201.379 101.448M201.379 101.448L201.331 101.496M201.379 101.448L201.331 101.496M201.331 101.496L201.283 101.544M201.331 101.496L201.283 101.544M201.283 101.544L201.235 101.592M201.283 101.544L201.235 101.592M201.235 101.592L201.187 101.64M201.235 101.592L201.187 101.64M201.187 101.64L201.139 101.688M201.187 101.64L201.139 101.688M201.139 101.688L201.091 101.736M201.139 101.688L201.091 101.736M201.091 101.736L201.043 101.784M201.091 101.736L201.043 101.784M201.043 101.784L200.995 101.832M201.043 101.784L200.995 101.832M200.995 101.832L200.947 101.88M200.995 101.832L200.947 101.88M200.947 101.88L200.899 101.928M200.947 101.88L200.899 101.928M200.899 101.928L200.851 101.976M200.899 101.928L200.851 101.976M200.851 101.976L200.803 102.024M200.851 101.976L200.803 102.024M200.803 102.024L200.755 102.072M200.803 102.024L200.755 102.072M200.755 102.072L200.707 102.12M200.755 102.072L200.707 102.12M200.707 102.12L200.659 102.168M200.707 102.12L200.659 102.168M200.659 102.168L200.611 102.216M200.659 102.168L200.611 102.216M200.611 102.216L200.563 102.264M200.611 102.216L200.563 102.264M200.563 102.264L200.515 102.312M200.563 102.264L200.515 102.312M200.515 102.312L200.467 102.36M200.515 102.312L200.467 102.36M200.467 102.36L200.419 102.408M200.467 102.36L200.419 102.408M200.419 102.408L200.371 102.456M200.419 102.408L200.371 102.456M200.371 102.456L200.323 102.504M200.371 102.456L200.323 102.504M200.323 102.504L200.275 102.552M200.323 102.504L200.275 102.552M200.275 102.552L200.227 102.6M200.275 102.552L200.227 102.6M200.227 102.6L200.179 102.648M200.227 102.6L200.179 102.648M200.179 102.648L200.131 102.696M200.179 102.648L200.131 102.696M200.131 102.696L200.083 102.743M200.131 102.696L200.083 102.743M200.083 102.743L200.035 102.791M200.083 102.743L200.035 102.791M200.035 102.791L199.987 102.839M200.035 102.791L199.987 102.839M199.987 102.839L199.939 102.887M199.987 102.839L199.939 102.887M199.939 102.887L199.891 102.935M199.939 102.887L199.891 102.935M199.891 102.935L199.843 102.983M199.891 102.935L199.843 102.983M199.843 102.983L199.795 103.031M199.843 102.983L199.795 103.031M199.795 103.031L199.747 103.079M199.795 103.031L199.747 103.079M199.747 103.079L199.699 103.127M199.747 103.079L199.699 103.127M199.699 103.127L199.651 103.175M199.699 103.127L199.651 103.175M199.651 103.175L199.603 103.223M199.651 103.175L199.603 103.223M199.603 103.223L199.555 103.271M199.603 103.223L199.555 103.271M199.555 103.271L199.507 103.319M199.555 103.271L199.507 103.319M199.507 103.319L199.459 103.367M199.507 103.319L199.459 103.367M199.459 103.367L199.411 103.415M199.459 103.367L199.411 103.415M199.411 103.415L199.363 103.463M199.411 103.415L199.363 103.463M199.363 103.463L199.315 103.511M199.363 103.463L199.315 103.511M199.315 103.511L199.267 103.559M199.315 103.511L199.267 103.559M199.267 103.559L199.219 103.607M199.267 103.559L199.219 103.607M199.219 103.607L199.171 103.655M199.219 103.607L199.171 103.655M199.171 103.655L199.123 103.703M199.171 103.655L199.123 103.703M199.123 103.703L199.075 103.751M199.123 103.703L199.075 103.751M199.075 103.751L199.027 103.799M199.075 103.751L199.027 103.799M199.027 103.799L198.979 103.847M199.027 103.799L198.979 103.847M198.979 103.847L198.931 103.895M198.979 103.847L198.931 103.895M198.931 103.895L198.883 103.943M198.931 103.895L198.883 103.943M198.883 103.943L198.835 103.991M198.883 103.943L198.835 103.991M198.835 103.991L198.787 104.039M198.835 103.991L198.787 104.039M198.787 104.039L198.739 104.087M198.787 104.039L198.739 104.087M198.739 104.087L198.691 104.135M198.739 104.087L198.691 104.135M198.691 104.135L198.643 104.183M198.691 104.135L198.643 104.183M198.643 104.183L198.595 104.231M198.643 104.183L198.595 104.231M198.595 104.231L198.547 104.279M198.595 104.231L198.547 104.279M198.547 104.279L198.499 104.327M198.547 104.279L198.499 104.327M198.499 104.327L198.451 104.375M198.499 104.327L198.451 104.375M198.451 104.375L198.403 104.423M198.451 104.375L198.403 104.423M198.403 104.423L198.355 104.471M198.403 104.423L198.355 104.471M198.355 104.471L198.307 104.519M198.355 104.471L198.307 104.519M198.307 104.519L198.259 104.567M198.307 104.519L198.259 104.567M198.259 104.567L198.211 104.615M198.259 104.567L198.211 104.615M198.211 104.615L198.163 104.663M198.211 104.615L198.163 104.663M198.163 104.663L198.115 104.711M198.163 104.663L198.115 104.711M198.115 104.711L198.067 104.759M198.115 104.711L198.067 104.759M198.067 104.759L198.019 104.807M198.067 104.759L198.019 104.807M198.019 104.807L197.971 104.855M198.019 104.807L197.971 104.855M197.971 104.855L197.923 104.903M197.971 104.855L197.923 104.903M197.923 104.903L197.875 104.951M197.923 104.903L197.875 104.951M197.875 104.951L197.827 104.999M197.875 104.951L197.827 104.999M197.827 104.999L197.779 105.047M197.827 104.999L197.779 105.047M197.779 105.047L197.731 105.095M197.779 105.047L197.731 105.095M197.731 105.095L197.683 105.143M197.731 105.095L197.683 105.143M197.683 105.143L197.635 105.191M197.683 105.143L197.635 105.191M197.635 105.191L197.587 105.239M197.635 105.191L197.587 105.239M197.587 105.239L197.539 105.287M197.587 105.239L197.539 105.287M197.539 105.287L197.491 105.335M197.539 105.287L197.491 105.335M197.491 105.335L197.443 105.383M197.491 105.335L197.443 105.383M197.443 105.383L197.395 105.431M197.443 105.383L197.395 105.431M197.395 105.431L197.347 105.479M197.395 105.431L197.347 105.479M197.347 105.479L197.299 105.527M197.347 105.479L197.299 105.527M197.299 105.527L197.251 105.575M197.299 105.527L197.251 105.575M197.251 105.575L197.203 105.623M197.251 105.575L197.203 105.623M197.203 105.623L197.155 105.671M197.203 105.623L197.155 105.671M197.155 105.671L197.107 105.719M197.155 105.671L197.107 105.719M197.107 105.719L197.059 105.767M197.107 105.719L197.059 105.767M197.059 105.767L197.011 105.815M197.059 105.767L197.011 105.815M197.011 105.815L196.963 105.863M197.011 105.815L196.963 105.863M196.963 105.863L196.915 105.911M196.963 105.863L196.915 105.911M196.915 105.911L196.867 105.959M196.915 105.911L196.867 105.959M196.867 105.959L196.819 106.007M196.867 105.959L196.819 106.007M196.819 106.007L196.771 106.055M196.819 106.007L196.771 106.055M196.771 106.055L196.723 106.103M196.771 106.055L196.723 106.103M196.723 106.103L196.675 106.151M196.723 106.103L196.675 106.151M196.675 106.151L196.627 106.199M196.675 106.151L196.627 106.199M196.627 106.199L196.579 106.247M196.627 106.199L196.579 106.247M196.579 106.247L196.531 106.295M196.579 106.247L196.531 106.295M196.531 106.295L196.483 106.343M196.531 106.295L196.483 106.343M196.483 106.343L196.435 106.391M196.483 106.343L196.435 106.391M196.435 106.391L196.387 106.439M196.435 106.391L196.387 106.439M196.387 106.439L196.339 106.487M196.387 106.439L196.339 106.487M196.339 106.487L196.291 106.535M196.339 106.487L196.291 106.535M196.291 106.535L196.243 106.583M196.291 106.535L196.243 106.583M196.243 106.583L196.196 106.631M196.243 106.583L196.196 106.631M196.196 106.631L196.148 106.679M196.196 106.631L196.148 106.679M196.148 106.679L196.1 106.727M196.148 106.679L196.1 106.727M196.1 106.727L196.052 106.775M196.1 106.727L196.052 106.775M196.052 106.775L196.004 106.823M196.052 106.775L196.004 106.823M196.004 106.823L195.956 106.871M196.004 106.823L195.956 106.871M195.956 106.871L195.908 106.919M195.956 106.871L195.908 106.919M195.908 106.919L195.86 106.967M195.908 106.919L195.86 106.967M195.86 106.967L195.812 107.015M195.86 106.967L195.812 107.015M195.812 107.015L195.764 107.063M195.812 107.015L195.764 107.063M195.764 107.063L195.716 107.111M195.764 107.063L195.716 107.111M195.716 107.111L195.668 107.159M195.716 107.111L195.668 107.159M195.668 107.159L195.62 107.207M195.668 107.159L195.62 107.207M195.62 107.207L195.572 107.255M195.62 107.207L195.572 107.255M195.572 107.255L195.524 107.303M195.572 107.255L195.524 107.303M195.524 107.303L195.476 107.351M195.524 107.303L195.476 107.351M195.476 107.351L195.428 107.399M195.476 107.351L195.428 107.399M195.428 107.399L195.38 107.447M195.428 107.399L195.38 107.447M195.38 107.447L195.332 107.495M195.38 107.447L195.332 107.495M195.332 107.495L195.284 107.543M195.332 107.495L195.284 107.543M195.284 107.543L195.236 107.591M195.284 107.543L195.236 107.591M195.236 107.591L195.188 107.639M195.236 107.591L195.188 107.639M195.188 107.639L195.14 107.687M195.188 107.639L195.14 107.687M195.14 107.687L195.092 107.735M195.14 107.687L195.092 107.735M195.092 107.735L195.044 107.783M195.092 107.735L195.044 107.783M195.044 107.783L194.996 107.831M195.044 107.783L194.996 107.831M194.996 107.831L194.948 107.879M194.996 107.831L194.948 107.879M194.948 107.879L194.9 107.927M194.948 107.879L194.9 107.927M194.9 107.927L194.852 107.975M194.9 107.927L194.852 107.975M194.852 107.975L194.804 108.023M194.852 107.975L194.804 108.023M194.804 108.023L194.756 108.071M194.804 108.023L194.756 108.071M194.756 108.071L194.708 108.119M194.756 108.071L194.708 108.119M194.708 108.119L194.66 108.167M194.708 108.119L194.66 108.167M194.66 108.167L194.612 108.215M194.66 108.167L194.612 108.215M194.612 108.215L194.564 108.263M194.612 108.215L194.564 108.263M194.564 108.263L194.516 108.311M194.564 108.263L194.516 108.311M194.516 108.311L194.468 108.359M194.516 108.311L194.468 108.359M194.468 108.359L194.42 108.407M194.468 108.359L194.42 108.407M194.42 108.407L194.372 108.455M194.42 108.407L194.372 108.455M194.372 108.455L194.324 108.503M194.372 108.455L194.324 108.503M194.324 108.503L194.276 108.551M194.324 108.503L194.276 108.551M194.276 108.551L194.228 108.599M194.276 108.551L194.228 108.599M194.228 108.599L194.18 108.647M194.228 108.599L194.18 108.647M194.18 108.647L194.132 108.695M194.18 108.647L194.132 108.695M194.132 108.695L194.084 108.743M194.132 108.695L194.084 108.743M194.084 108.743L194.036 108.791M194.084 108.743L194.036 108.791M194.036 108.791L193.988 108.839M194.036 108.791L193.988 108.839M193.988 108.839L193.94 108.887M193.988 108.839L193.94 108.887M193.94 108.887L193.892 108.935M193.94 108.887L193.892 108.935M193.892 108.935L193.844 108.983M193.892 108.935L193.844 108.983M193.844 108.983L193.796 109.031M193.844 108.983L193.796 109.031M193.796 109.031L193.748 109.079M193.796 109.031L193.748 109.079M193.748 109.079L193.7 109.127M193.748 109.079L193.7 109.127M193.7 109.127L193.652 109.175M193.7 109.127L193.652 109.175M193.652 109.175L193.604 109.223M193.652 109.175L193.604 109.223M193.604 109.223L193.556 109.271M193.604 109.223L193.556 109.271M193.556 109.271L193.508 109.319M193.556 109.271L193.508 109.319M193.508 109.319L193.46 109.367M193.508 109.319L193.46 109.367M193.46 109.367L193.412 109.415M193.46 109.367L193.412 109.415M193.412 109.415L193.364 109.463M193.412 109.415L193.364 109.463M193.364 109.463L193.316 109.511M193.364 109.463L193.316 109.511M193.316 109.511L193.268 109.559M193.316 109.511L193.268 109.559M193.268 109.559L193.22 109.607M193.268 109.559L193.22 109.607M193.22 109.607L193.172 109.655M193.22 109.607L193.172 109.655M193.172 109.655L193.124 109.703M193.172 109.655L193.124 109.703M193.124 109.703L193.076 109.751M193.124 109.703L193.076 109.751M193.076 109.751L193.028 109.799M193.076 109.751L193.028 109.799M193.028 109.799L192.98 109.847M193.028 109.799L192.98 109.847M192.98 109.847L192.932 109.895M192.98 109.847L192.932 109.895M192.932 109.895L192.884 109.943M192.932 109.895L192.884 109.943M192.884 109.943L192.836 109.991M192.884 109.943L192.836 109.991M192.836 109.991L192.788 110.039M192.836 109.991L192.788 110.039M192.788 110.039L192.74 110.087M192.788 110.039L192.74 110.087M192.74 110.087L192.692 110.135M192.74 110.087L192.692 110.135M192.692 110.135L192.644 110.183M192.692 110.135L192.644 110.183M192.644 110.183L192.596 110.231M192.644 110.183L192.596 110.231M192.596 110.231L192.548 110.279M192.596 110.231L192.548 110.279M192.548 110.279L192.5 110.327M192.548 110.279L192.5 110.327M192.5 110.327L192.452 110.375M192.5 110.327L192.452 110.375M192.452 110.375L192.404 110.423M192.452 110.375L192.404 110.423M192.404 110.423L192.356 110.471M192.404 110.423L192.356 110.471M192.356 110.471L192.308 110.519M192.356 110.471L192.308 110.519M192.308 110.519L192.26 110.567M192.308 110.519L192.26 110.567M192.26 110.567L192.212 110.615M192.26 110.567L192.212 110.615M192.212 110.615L192.164 110.663M192.212 110.615L192.164 110.663M192.164 110.663L192.116 110.711M192.164 110.663L192.116 110.711M192.116 110.711L192.068 110.759M192.116 110.711L192.068 110.759M192.068 110.759L192.02 110.807M192.068 110.759L192.02 110.807M192.02 110.807L191.972 110.854M192.02 110.807L191.972 110.854M191.972 110.854L191.924 110.902M191.972 110.854L191.924 110.902M191.924 110.902L191.876 110.95M191.924 110.902L191.876 110.95M191.876 110.95L191.828 110.998M191.876 110.95L191.828 110.998M191.828 110.998L191.78 111.046M191.828 110.998L191.78 111.046M191.78 111.046L191.732 111.094M191.78 111.046L191.732 111.094M191.732 111.094L191.684 111.142M191.732 111.094L191.684 111.142M191.684 111.142L191.636 111.19M191.684 111.142L191.636 111.19M191.636 111.19L191.588 111.238M191.636 111.19L191.588 111.238M191.588 111.238L191.54 111.286M191.588 111.238L191.54 111.286M191.54 111.286L191.492 111.334M191.54 111.286L191.492 111.334M191.492 111.334L191.444 111.382M191.492 111.334L191.444 111.382M191.444 111.382L191.396 111.43M191.444 111.382L191.396 111.43M191.396 111.43L191.348 111.478M191.396 111.43L191.348 111.478M191.348 111.478L191.3 111.526M191.348 111.478L191.3 111.526M191.3 111.526L191.252 111.574M191.3 111.526L191.252 111.574M191.252 111.574L191.204 111.622M191.252 111.574L191.204 111.622M191.204 111.622L191.156 111.67M191.204 111.622L191.156 111.67M191.156 111.67L191.108 111.718M191.156 111.67L191.108 111.718M191.108 111.718L191.06 111.766M191.108 111.718L191.06 111.766M191.06 111.766L191.012 111.814M191.06 111.766L191.012 111.814M191.012 111.814L190.964 111.862M191.012 111.814L190.964 111.862M190.964 111.862L190.916 111.91M190.964 111.862L190.916 111.91M190.916 111.91L190.868 111.958M190.916 111.91L190.868 111.958M190.868 111.958L190.82 112.006M190.868 111.958L190.82 112.006M190.82 112.006L190.772 112.054M190.82 112.006L190.772 112.054M190.772 112.054L190.724 112.102M190.772 112.054L190.724 112.102M190.724 112.102L190.676 112.15M190.724 112.102L190.676 112.15M190.676 112.15L190.628 112.198M190.676 112.15L190.628 112.198M190.628 112.198L190.58 112.246M190.628 112.198L190.58 112.246M190.58 112.246L190.532 112.294M190.58 112.246L190.532 112.294M190.532 112.294L190.484 112.342M190.532 112.294L190.484 112.342M190.484 112.342L190.436 112.39M190.484 112.342L190.436 112.39M190.436 112.39L190.388 112.438M190.436 112.39L190.388 112.438M190.388 112.438L190.34 112.486M190.388 112.438L190.34 112.486M190.34 112.486L190.292 112.534M190.34 112.486L190.292 112.534M190.292 112.534L190.244 112.582M190.292 112.534L190.244 112.582M190.244 112.582L190.196 112.63M190.244 112.582L190.196 112.63M190.196 112.63L190.148 112.678M190.196 112.63L190.148 112.678M190.148 112.678L190.1 112.726M190.148 112.678L190.1 112.726M190.1 112.726L190.052 112.774M190.1 112.726L190.052 112.774M190.052 112.774L190.004 112.822M190.052 112.774L190.004 112.822M190.004 112.822L189.956 112.87M190.004 112.822L189.956 112.87M189.956 112.87L189.908 112.918M189.956 112.87L189.908 112.918M189.908 112.918L189.86 112.966M189.908 112.918L189.86 112.966M189.86 112.966L189.812 113.014M189.86 112.966L189.812 113.014M189.812 113.014L189.764 113.062M189.812 113.014L189.764 113.062M189.764 113.062L189.716 113.11M189.764 113.062L189.716 113.11M189.716 113.11L189.668 113.158M189.716 113.11L189.668 113.158M189.668 113.158L189.62 113.206M189.668 113.158L189.62 113.206M189.62 113.206L189.572 113.254M189.62 113.206L189.572 113.254M189.572 113.254L189.524 113.302M189.572 113.254L189.524 113.302M189.524 113.302L189.476 113.35M189.524 113.302L189.476 113.35M189.476 113.35L189.428 113.398M189.476 113.35L189.428 113.398M189.428 113.398L189.38 113.446M189.428 113.398L189.38 113.446M189.38 113.446L189.332 113.494M189.38 113.446L189.332 113.494M189.332 113.494L189.284 113.542M189.332 113.494L189.284 113.542M189.284 113.542L189.236 113.59M189.284 113.542L189.236 113.59M189.236 113.59L189.188 113.638M189.236 113.59L189.188 113.638M189.188 113.638L189.14 113.686M189.188 113.638L189.14 113.686M189.14 113.686L189.092 113.734M189.14 113.686L189.092 113.734M189.092 113.734L189.044 113.782M189.092 113.734L189.044 113.782M189.044 113.782L188.996 113.83M189.044 113.782L188.996 113.83M188.996 113.83L188.948 113.878M188.996 113.83L188.948 113.878M188.948 113.878L188.9 113.926M188.948 113.878L188.9 113.926M188.9 113.926L188.852 113.974M188.9 113.926L188.852 113.974M188.852 113.974L188.804 114.022M188.852 113.974L188.804 114.022M188.804 114.022L188.756 114.07M188.804 114.022L188.756 114.07M188.756 114.07L188.708 114.118M188.756 114.07L188.708 114.118M188.708 114.118L188.66 114.166M188.708 114.118L188.66 114.166M188.66 114.166L188.612 114.214M188.66 114.166L188.612 114.214M188.612 114.214L188.564 114.262M188.612 114.214L188.564 114.262M188.564 114.262L188.516 114.31M188.564 114.262L188.516 114.31M188.516 114.31L188.468 114.358M188.516 114.31L188.468 114.358M188.468 114.358L188.42 114.406M188.468 114.358L188.42 114.406M188.42 114.406L188.372 114.454M188.42 114.406L188.372 114.454M188.372 114.454L188.324 114.502M188.372 114.454L188.324 114.502M188.324 114.502L188.276 114.55L188.324 114.502Z" stroke="#D9DEE8" stroke-width="2" stroke-miterlimit="10"/>
<path d="M181.5 58.1953C181.5 56.5628 180.262 55.307 178.652 55.307C177.042 55.307 175.803 56.5628 175.803 58.1953V69.4977C175.184 68.9953 174.565 68.6186 173.946 68.2419V50.9116C173.946 49.2791 172.707 48.0233 171.098 48.0233C169.488 48.0233 168.249 49.2791 168.249 50.9116V66.4837C168.002 66.4837 167.63 66.4837 167.259 66.4837C166.887 66.4837 166.639 66.4837 166.268 66.4837V45.8884C166.268 44.2558 165.029 43 163.42 43C161.81 43 160.571 44.2558 160.571 45.8884V68.2419C159.952 68.6186 159.333 68.9953 158.714 69.4977V50.9116C158.714 49.2791 157.475 48.0233 155.865 48.0233C154.255 48.0233 153.141 49.2791 153.141 50.9116V79.1674C150.416 76.5302 147.816 73.893 145.091 71.2558L144.967 71.1302C144.596 70.7535 144.101 70.6279 143.605 70.6279C142.491 70.6279 141.5 71.507 141.5 72.7628C141.5 73.2651 141.624 73.6419 141.872 74.0186C144.72 78.7907 147.568 83.5628 150.416 88.3349C151.407 89.7163 152.893 91.6 155.122 93.3581C159.828 96.7488 164.658 97 166.639 97C166.763 97 167.011 97 167.135 97C174.937 97 181.376 90.2186 181.376 81.8047C181.376 81.4279 181.376 81.1767 181.376 80.8C181.376 80.6744 181.376 80.5488 181.376 80.2977L181.5 58.5V58.1953Z" fill="white"/>
<path d="M11.5 107L11.5 119M17.5 113L5.5 113" stroke="#D9DEE8" stroke-width="2" stroke-linecap="round"/>
<circle cx="23.5" cy="14" r="5" stroke="#D9DEE8" stroke-width="2"/>
<circle cx="56.5" cy="58" r="3" fill="#D9DEE8" stroke="#D9DEE8" stroke-width="2"/>
<path d="M315.5 1L315.5 13M321.5 7L309.5 7" stroke="#D9DEE8" stroke-width="2" stroke-linecap="round"/>
<circle cx="252.5" cy="48" r="5" stroke="#D9DEE8" stroke-width="2"/>
<circle cx="309.5" cy="103" r="3" fill="#D9DEE8" stroke="#D9DEE8" stroke-width="2"/>
</g>
<defs>
<filter id="filter0_d_751_30326" x="0.5" y="0" width="326" height="128" filterUnits="userSpaceOnUse" color-interpolation-filters="sRGB">
<feFlood flood-opacity="0" result="BackgroundImageFix"/>
<feColorMatrix in="SourceAlpha" type="matrix" values="0 0 0 0 0 0 0 0 0 0 0 0 0 0 0 0 0 0 127 0" result="hardAlpha"/>
<feOffset dy="4"/>
<feGaussianBlur stdDeviation="2"/>
<feComposite in2="hardAlpha" operator="out"/>
<feColorMatrix type="matrix" values="0 0 0 0 0 0 0 0 0 0 0 0 0 0 0 0 0 0 0.25 0"/>
<feBlend mode="normal" in2="BackgroundImageFix" result="effect1_dropShadow_751_30326"/>
<feBlend mode="normal" in="SourceGraphic" in2="effect1_dropShadow_751_30326" result="shape"/>
</filter>
<clipPath id="clip0_751_30326">
<rect width="318" height="120" fill="white" transform="translate(4.5)"/>
</clipPath>
</defs>
</svg>
