<svg width="170" height="32" viewBox="0 0 170 32" fill="none" xmlns="http://www.w3.org/2000/svg">
<path fill-rule="evenodd" clip-rule="evenodd" d="M32 16C32 24.8366 24.8366 32 16 32C13.0163 32 10.2234 31.1833 7.83255 29.7613L0 31.9991L2.23799 24.1662C0.816409 21.7756 0 18.9832 0 16C0 7.16344 7.16344 0 16 0C24.8366 0 32 7.16344 32 16ZM7.04 16C7.04 20.9485 11.0515 24.96 16 24.96C20.9485 24.96 24.96 20.9485 24.96 16C24.96 11.0515 20.9485 7.04 16 7.04C11.0515 7.04 7.04 11.0515 7.04 16ZM19.5556 16.0009C19.5556 17.9645 17.9637 19.5564 16 19.5564C14.0363 19.5564 12.4445 17.9645 12.4445 16.0009C12.4445 14.0372 14.0363 12.4453 16 12.4453C17.9637 12.4453 19.5556 14.0372 19.5556 16.0009Z" fill="#12A3F8"/>
<path d="M51.42 12.28H47.42V23.52H44V12.28H40V9.36H51.42V12.28Z" fill="#202020"/>
<path d="M57.6042 13.36L57.4642 16.24C57.2109 16.1733 56.9309 16.14 56.6242 16.14C55.8376 16.14 55.2509 16.3867 54.8642 16.88C54.4776 17.36 54.2842 17.8667 54.2842 18.4V23.52H51.0042V13.56H54.1642V15H54.2042C54.4576 14.48 54.8242 14.0667 55.3042 13.76C55.7842 13.44 56.3176 13.28 56.9042 13.28C57.2242 13.28 57.4576 13.3067 57.6042 13.36Z" fill="#202020"/>
<path d="M68.6539 23.52H65.4939V22.14H65.4539C65.2139 22.6067 64.8206 23 64.2739 23.32C63.7272 23.64 63.1206 23.8 62.4539 23.8C61.2139 23.8 60.3006 23.4067 59.7139 22.62C59.1272 21.82 58.8339 20.8533 58.8339 19.72V13.56H62.1339V18.96C62.1339 20.3733 62.6272 21.08 63.6139 21.08C64.1606 21.08 64.5872 20.8733 64.8939 20.46C65.2139 20.0467 65.3739 19.54 65.3739 18.94V13.56H68.6539V23.52Z" fill="#202020"/>
<path d="M83.8791 9.36L78.4191 23.52H74.9991L69.6391 9.36H73.4791L76.7591 19.4H76.8391L80.0991 9.36H83.8791Z" fill="#202020"/>
<path d="M88.4719 23.52H85.0319V9.36H88.4719V23.52Z" fill="#202020"/>
<path d="M101.059 10.74L98.8791 13.04C98.5991 12.68 98.2191 12.3867 97.7391 12.16C97.2724 11.9333 96.8124 11.82 96.3591 11.82C95.8257 11.82 95.3591 11.9333 94.9591 12.16C94.5724 12.3733 94.3791 12.7333 94.3791 13.24C94.3791 13.4667 94.4257 13.6667 94.5191 13.84C94.6124 14 94.7657 14.1467 94.9791 14.28C95.2057 14.4 95.4257 14.5067 95.6391 14.6C95.8524 14.68 96.1591 14.78 96.5591 14.9C97.0791 15.0733 97.4857 15.2133 97.7791 15.32C98.0724 15.4267 98.4457 15.6067 98.8991 15.86C99.3657 16.1 99.7257 16.3533 99.9791 16.62C100.232 16.8867 100.459 17.2467 100.659 17.7C100.859 18.14 100.959 18.6267 100.959 19.16C100.959 20.6933 100.432 21.8667 99.3791 22.68C98.3391 23.48 97.0591 23.88 95.5391 23.88C94.5124 23.88 93.5257 23.7 92.5791 23.34C91.6324 22.98 90.8524 22.48 90.2391 21.84L92.4791 19.56C92.8257 20 93.2791 20.36 93.8391 20.64C94.4124 20.92 94.9791 21.06 95.5391 21.06C96.1124 21.06 96.5791 20.94 96.9391 20.7C97.3124 20.4467 97.4991 20.0533 97.4991 19.52C97.4991 19.3067 97.4457 19.12 97.3391 18.96C97.2457 18.7867 97.1391 18.6467 97.0191 18.54C96.8991 18.42 96.6857 18.2933 96.3791 18.16C96.0724 18.0267 95.8124 17.9267 95.5991 17.86C95.3857 17.78 95.0391 17.66 94.5591 17.5C94.0391 17.3267 93.5924 17.1467 93.2191 16.96C92.8457 16.7733 92.4724 16.5267 92.0991 16.22C91.7257 15.9133 91.4391 15.5267 91.2391 15.06C91.0391 14.5933 90.9391 14.0533 90.9391 13.44C90.9391 12.6933 91.0991 12.0267 91.4191 11.44C91.7391 10.84 92.1657 10.3733 92.6991 10.04C93.2324 9.69333 93.8124 9.43333 94.4391 9.26C95.0791 9.08667 95.7391 9 96.4191 9C97.2457 9 98.0724 9.15333 98.8991 9.46C99.7391 9.75333 100.459 10.18 101.059 10.74Z" fill="#202020"/>
<path d="M106.655 23.52H103.215V9.36H106.655V23.52Z" fill="#202020"/>
<path d="M120.623 19.4C120.623 20.1333 120.469 20.78 120.163 21.34C119.869 21.8867 119.456 22.3133 118.923 22.62C118.403 22.9267 117.829 23.1533 117.203 23.3C116.589 23.4467 115.929 23.52 115.223 23.52H109.583V9.36H115.223C115.823 9.36 116.383 9.42 116.903 9.54C117.436 9.64667 117.949 9.83333 118.443 10.1C118.936 10.3533 119.323 10.7333 119.603 11.24C119.896 11.7333 120.043 12.32 120.043 13C120.043 13.76 119.836 14.4 119.423 14.92C119.009 15.44 118.443 15.82 117.723 16.06V16.1C118.576 16.2467 119.269 16.6133 119.803 17.2C120.349 17.7733 120.623 18.5067 120.623 19.4ZM116.743 13.46C116.743 12.54 116.016 12.08 114.563 12.08H112.883V15H114.723C115.363 15 115.856 14.8667 116.203 14.6C116.563 14.3333 116.743 13.9533 116.743 13.46ZM117.203 19.08C117.203 18.04 116.396 17.52 114.783 17.52H112.883V20.76H114.803C116.403 20.76 117.203 20.2 117.203 19.08Z" fill="#202020"/>
<path d="M126.323 23.52H122.883V9.36H126.323V23.52Z" fill="#202020"/>
<path d="M138.171 23.52H129.251V9.36H132.691V20.54H138.171V23.52Z" fill="#202020"/>
<path d="M143.218 23.52H139.778V9.36H143.218V23.52Z" fill="#202020"/>
<path d="M156.205 12.28H152.205V23.52H148.785V12.28H144.785V9.36H156.205V12.28Z" fill="#202020"/>
<path d="M169.852 9.36L164.412 17.52V23.52H160.992V17.52L155.672 9.36H159.812L162.832 14.6L165.852 9.36H169.852Z" fill="#202020"/>
</svg>
