<svg width="40" height="40" viewBox="0 0 40 40" fill="none" xmlns="http://www.w3.org/2000/svg">
<path fill-rule="evenodd" clip-rule="evenodd" d="M40 20C40 31.0457 31.0457 40 20 40C16.2703 40 12.7791 38.9791 9.79055 37.2015L0 39.9988L2.79746 30.2077C1.0205 27.2195 0 23.7289 0 20C0 8.9543 8.9543 0 20 0C31.0457 0 40 8.9543 40 20ZM8.8 20C8.8 26.1856 13.8144 31.2 20 31.2C26.1856 31.2 31.2 26.1856 31.2 20C31.2 13.8144 26.1856 8.8 20 8.8C13.8144 8.8 8.8 13.8144 8.8 20ZM24.4447 20.0012C24.4447 22.4558 22.4548 24.4457 20.0002 24.4457C17.5456 24.4457 15.5558 22.4558 15.5558 20.0012C15.5558 17.5466 17.5456 15.5568 20.0002 15.5568C22.4548 15.5568 24.4447 17.5466 24.4447 20.0012Z" fill="#12A3F8"/>
</svg>
