<svg width="64" height="64" viewBox="0 0 64 64" fill="none" xmlns="http://www.w3.org/2000/svg">
<circle cx="32" cy="32" r="8" fill="#12A3F8"/>
<mask id="mask0" style="mask-type:alpha" maskUnits="userSpaceOnUse" x="0" y="0" width="64" height="64">
<path d="M64 32C64 49.6731 49.6731 64 32 64C26.1714 64 20.7068 62.4417 16 59.719L0 64L4.28103 48C1.55831 43.2932 0 37.8286 0 32C0 14.3269 14.3269 0 32 0C49.6731 0 64 14.3269 64 32ZM14.08 32C14.08 41.8969 22.1031 49.92 32 49.92C41.8969 49.92 49.92 41.8969 49.92 32C49.92 22.1031 41.8969 14.08 32 14.08C22.1031 14.08 14.08 22.1031 14.08 32Z" fill="white"/>
</mask>
<g mask="url(#mask0)">
<path d="M80 32C80 58.5097 58.5097 80 32 80C5.49033 80 -16 58.5097 -16 32C-16 5.49033 5.49033 -16 32 -16C58.5097 -16 80 5.49033 80 32ZM14.72 32C14.72 41.5435 22.4565 49.28 32 49.28C41.5435 49.28 49.28 41.5435 49.28 32C49.28 22.4565 41.5435 14.72 32 14.72C22.4565 14.72 14.72 22.4565 14.72 32Z" fill="#12A3F8"/>
<path d="M14.08 32C14.08 32 10.9281 32 7.04 32C3.15192 32 0 32 0 32C0 28.1119 3.15192 24.8 7.04 24.8C10.9281 24.8 14.08 28.1119 14.08 32Z" fill="#12A3F8"/>
</g>
</svg>
