<svg width="256" height="256" viewBox="0 0 256 256" fill="none" xmlns="http://www.w3.org/2000/svg">
<g id="icon High-DPI">
<rect width="256" height="256" fill="url(#paint0_linear_4222_585)"/>
<g id="Union">
<path d="M214 128C214 175.496 175.496 214 128 214C80.5035 214 42 175.496 42 128C42 80.5035 80.5035 42 128 42C175.496 42 214 80.5035 214 128ZM79.84 128C79.84 154.598 101.402 176.16 128 176.16C154.598 176.16 176.16 154.598 176.16 128C176.16 101.402 154.598 79.84 128 79.84C101.402 79.84 79.84 101.402 79.84 128Z" fill="#32DFFF"/>
<path d="M147.111 128C147.111 138.555 138.555 147.111 128 147.111C117.445 147.111 108.889 138.555 108.889 128C108.889 117.445 117.445 108.889 128 108.889C138.555 108.889 147.111 117.445 147.111 128Z" fill="#32DFFF"/>
<path d="M61.1111 147.111L42 214L108.889 194.889L61.1111 147.111Z" fill="#32DFFF"/>
</g>
</g>
<defs>
<linearGradient id="paint0_linear_4222_585" x1="1.98794e-06" y1="10.8395" x2="255.931" y2="6.62726" gradientUnits="userSpaceOnUse">
<stop stop-color="#334469"/>
<stop offset="1" stop-color="#1B2235"/>
</linearGradient>
</defs>
</svg>
