<svg width="102" height="102" viewBox="0 0 102 102" fill="none" xmlns="http://www.w3.org/2000/svg">
<path d="M4.73145 30C4.73145 22.268 10.9995 16 18.7314 16H70.2266C77.9586 16 84.2266 22.268 84.2266 30V62.9574C84.2266 70.6894 77.9586 76.9574 70.2266 76.9574H18.7315C10.9995 76.9574 4.73145 70.6894 4.73145 62.9574V30Z" fill="#D5DCEB"/>
<path d="M4.73145 94.5672C4.73145 89.3303 8.9768 85.085 14.2137 85.085H74.7444C79.9813 85.085 84.2266 89.3303 84.2266 94.5672C84.2266 96.0635 83.0137 97.2765 81.5174 97.2765H7.44067C5.94441 97.2765 4.73145 96.0635 4.73145 94.5672Z" fill="#D5DCEB"/>
<path d="M0 39.019C0 36.4056 2.11852 34.2871 4.73186 34.2871V54.6063C2.11852 54.6063 0 52.4877 0 49.8744V39.019Z" fill="#9DADD0"/>
<path d="M88.959 39.019C88.959 36.4056 86.8405 34.2871 84.2271 34.2871V54.6063C86.8405 54.6063 88.959 52.4877 88.959 49.8744V39.019Z" fill="#9DADD0"/>
<path d="M64.7397 12C64.7397 7.58172 68.3215 4 72.7397 4H94C98.4183 4 102 7.58172 102 12V22C102 26.4183 98.4183 30 94 30H66.7397C65.6352 30 64.7397 29.1046 64.7397 28V12Z" fill="#4866A7"/>
<ellipse cx="73.1231" cy="17" rx="2.79452" ry="3" fill="#D5DCEB"/>
<ellipse cx="93.6163" cy="17" rx="2.79452" ry="3" fill="#D5DCEB"/>
<ellipse cx="83.3697" cy="17" rx="2.79452" ry="3" fill="#D5DCEB"/>
<path fill-rule="evenodd" clip-rule="evenodd" d="M53.5616 57C53.5616 59.3869 52.6783 61.6761 51.1061 63.364C49.5338 65.0518 47.4015 66 45.178 66C42.9545 66 40.8221 65.0518 39.2499 63.364C37.6777 61.6761 36.7944 59.3869 36.7944 57H53.5616Z" fill="#4866A7"/>
<rect x="26.5479" y="33" width="7.45205" height="14" rx="3.72603" fill="#4866A7"/>
<rect x="36.3286" y="77" width="16.7671" height="8" fill="#9DADD0"/>
<rect x="56.356" y="33" width="7.45205" height="14" rx="3.72603" fill="#4866A7"/>
</svg>
