<svg width="102" height="102" viewBox="0 0 102 102" fill="none" xmlns="http://www.w3.org/2000/svg">
<path d="M18.8 32.333H5V64.9997C5 67.5809 7.05562 69.6663 9.6 69.6663H14.2C16.7444 69.6663 18.8 67.5809 18.8 64.9997V32.333ZM11.9 64.9997C10.635 64.9997 9.6 63.9497 9.6 62.6663C9.6 61.383 10.635 60.333 11.9 60.333C13.165 60.333 14.2 61.383 14.2 62.6663C14.2 63.9497 13.165 64.9997 11.9 64.9997Z" fill="#4866A7"/>
<path d="M51.1128 26.1308L37.0052 37.7089C34.6588 39.6287 34.207 43.0844 35.985 45.5506C37.8651 48.1793 41.5231 48.6962 44.0444 46.7025L58.5164 35.3017C59.5366 34.5042 60.994 34.6814 61.7956 35.7152C62.5972 36.7489 62.4077 38.2257 61.3875 39.038L58.3415 41.4304L78.4974 58.6272L78.5994 32.4515H78.4974L77.929 32.0823L67.3483 25.2152C65.1185 23.7679 62.5097 23 59.8572 23C56.6801 23 53.5904 24.1076 51.1128 26.1308Z" fill="#9DADD0"/>
<path d="M56.1366 44.2264L48.3799 50.091C43.6539 53.6798 36.7974 52.7461 33.2566 48.0194C29.9258 43.57 30.766 37.3553 35.162 33.8978L47.6447 24.0797C45.9044 23.3649 44.0289 23.0002 42.1235 23.0002C39.3029 22.9856 36.5573 23.8026 34.2018 25.3198L23.3994 32.3222V65.0004H27.6303L41.3434 77.1672C44.284 79.7786 48.83 79.5743 51.5156 76.715C52.3408 75.8251 52.8959 74.7893 53.181 73.7098L55.7315 75.9856C58.6572 78.5969 63.2182 78.4073 65.9037 75.5625C66.5789 74.8477 67.074 74.0161 67.3891 73.1554C70.2997 75.0519 74.2606 74.658 76.7061 72.0613C79.3917 69.2165 79.1967 64.7816 76.271 62.1703L56.1366 44.2264Z" fill="#9DADD0"/>
<path d="M83.2002 32.333V64.9997C83.2002 67.5809 85.2558 69.6663 87.8002 69.6663H92.4002C94.9446 69.6663 97.0002 67.5809 97.0002 64.9997V32.333H83.2002ZM92.4002 62.6663C92.4002 63.9497 91.3652 64.9997 90.1002 64.9997C88.8352 64.9997 87.8002 63.9497 87.8002 62.6663C87.8002 61.383 88.8352 60.333 90.1002 60.333C91.3652 60.333 92.4002 61.383 92.4002 62.6663Z" fill="#4866A7"/>
</svg>
