<svg width="102" height="102" viewBox="0 0 102 102" fill="none" xmlns="http://www.w3.org/2000/svg">
<path d="M91.6801 78.6182C91.6801 72.4657 91.6801 66.5253 91.6801 60.3728C88.7099 62.4944 85.7397 64.6159 82.7696 66.7375C75.3441 62.4944 63.8877 59.7363 50.9462 59.7363C38.0048 59.7363 26.5484 62.4944 19.1229 66.7375C16.1528 64.6159 13.1826 62.4944 10.2124 60.3728C10.2124 66.5253 10.2124 72.4657 10.2124 78.6182C10.2124 78.8303 10.2124 78.8303 10.2124 79.0425C10.6367 89.2259 28.6699 97.5 50.9462 97.5C73.2226 97.5 91.2558 89.2259 91.6801 78.6182C91.6801 78.8303 91.6801 78.8303 91.6801 78.6182C91.6801 78.8303 91.6801 78.6182 91.6801 78.6182Z" fill="#D5DCEB"/>
<path d="M91.6801 60.373C91.6801 54.2205 91.6801 48.2802 91.6801 42.1277C88.7099 44.2492 85.7397 46.3708 82.7696 48.4923C75.3441 44.2492 63.8877 41.4912 50.9462 41.4912C38.0048 41.4912 26.5484 44.2492 19.1229 48.4923C16.1528 46.3708 13.1826 44.2492 10.2124 42.1277C10.2124 48.2802 10.2124 54.2205 10.2124 60.373C10.2124 60.5852 10.2124 60.5852 10.2124 60.7974C10.6367 70.9808 28.6699 79.2549 50.9462 79.2549C73.2226 79.467 91.2558 70.9808 91.6801 60.373C91.6801 60.5852 91.6801 60.5852 91.6801 60.373C91.6801 60.5852 91.6801 60.5852 91.6801 60.373Z" fill="#9DADD0"/>
<path d="M91.6801 42.127C91.6801 35.9744 91.6801 30.0341 91.6801 23.8816C88.7099 26.0031 85.7398 28.1247 82.7696 30.2462C75.3441 26.0031 63.8877 23.2451 50.9463 23.2451C38.0048 23.2451 26.5484 26.0031 19.1229 30.2462C16.1528 28.1247 13.1826 26.0031 10.2124 23.8816C10.2124 30.0341 10.2124 36.1866 10.2124 42.127C10.2124 42.3391 10.2124 42.3391 10.2124 42.5513C10.6367 52.7347 28.6699 61.0088 50.9463 61.0088C73.2226 61.2209 91.2558 52.7347 91.6801 42.127Z" fill="#D5DCEB"/>
<path d="M50.7339 42.7637C73.2305 42.7637 91.4677 34.31 91.4677 23.8818C91.4677 13.4537 73.2305 5 50.7339 5C28.2372 5 10 13.4537 10 23.8818C10 34.31 28.2372 42.7637 50.7339 42.7637Z" fill="#4866A7"/>
<path d="M78.1018 48.2797C79.625 48.2797 80.8598 47.0449 80.8598 45.5217C80.8598 43.9985 79.625 42.7637 78.1018 42.7637C76.5786 42.7637 75.3438 43.9985 75.3438 45.5217C75.3438 47.0449 76.5786 48.2797 78.1018 48.2797Z" fill="#4866A7"/>
<path d="M78.1018 67.2807C79.625 67.2807 80.8598 66.0459 80.8598 64.5227C80.8598 62.9995 79.625 61.7646 78.1018 61.7646C76.5786 61.7646 75.3438 62.9995 75.3438 64.5227C75.3438 66.0459 76.5786 67.2807 78.1018 67.2807Z" fill="#4866A7"/>
<path d="M78.1018 86.2817C79.625 86.2817 80.8598 85.0469 80.8598 83.5236C80.8598 82.0004 79.625 80.7656 78.1018 80.7656C76.5786 80.7656 75.3438 82.0004 75.3438 83.5236C75.3438 85.0469 76.5786 86.2817 78.1018 86.2817Z" fill="#4866A7"/>
</svg>
