<svg width="102" height="102" viewBox="0 0 102 102" fill="none" xmlns="http://www.w3.org/2000/svg">
<path d="M60.7955 14.3438C59.8924 13.4408 57.8606 11.4091 54.2484 10.2803C53.3453 10.0546 50.1846 9.15156 46.5724 10.2803C42.9602 11.4091 40.7025 13.6666 39.7995 14.5696C35.2842 19.0846 21.7384 32.4038 3 50.6895C3 65.1375 3 77.5538 3 92.0018C5.4834 94.2593 7.74104 96.5168 10.2244 99C37.0903 99 63.9562 99 90.8221 99C93.3055 96.7425 95.5631 94.485 98.0465 92.0018C98.0465 77.7795 98.0465 65.1375 98.0465 50.6895C85.4037 38.7248 72.9867 26.5343 60.7955 14.3438Z" fill="#4866A7"/>
<path d="M56.7632 73.0319C55.4023 73.7091 53.8145 74.1606 53.8145 74.1606C53.3609 74.1606 52.2268 74.6121 50.639 74.6121C49.7317 74.6121 48.3707 74.6121 46.783 74.1606C45.422 73.7091 44.5147 73.2576 43.8343 73.0319C30.2248 65.5821 16.6153 58.1324 3.00586 50.6826C3.00586 64.4534 3.00586 78.2241 3.00586 91.9948C3.00586 92.6721 3.23268 94.7038 4.59363 96.5098C6.40823 98.5416 9.13012 98.9931 9.58377 98.9931C24.5542 98.9931 74.0019 98.9931 91.2406 98.9931C91.6942 98.9931 94.4161 98.7673 96.4575 96.5098C98.0453 94.7038 98.0453 92.6721 98.0453 91.9948C98.0453 78.2241 98.0453 64.4534 98.0453 50.6826C75.5897 63.0989 59.0315 72.1289 56.7632 73.0319Z" fill="#D5DCEB"/>
<path d="M71.5057 36.4318C75.5387 34.3376 77.1176 29.3563 75.0322 25.3058C72.9469 21.2553 67.9869 19.6694 63.9538 21.7637C59.9208 23.8579 58.3419 28.8392 60.4273 32.8897C62.5127 36.9402 67.4726 38.5261 71.5057 36.4318Z" fill="#9DADD0"/>
<path d="M78.0605 48.2093C71.6224 47.2405 63.6692 48.5209 57.2526 50.064C53.8656 50.8785 50.8867 51.7715 48.7544 52.4607C47.6881 52.8055 46.8329 53.0994 46.2437 53.3075C45.949 53.4115 45.7208 53.494 45.5659 53.5507C45.4885 53.5791 45.4293 53.601 45.3894 53.6158L45.3439 53.6328L45.3321 53.6372L45.329 53.6384L45.3282 53.6387C45.328 53.6388 45.3278 53.6388 45.5045 54.1066L45.3278 53.6388L45.2887 53.6536L45.2526 53.6747C42.5372 55.2586 39.8199 56.6173 37.0864 57.984C31.4004 60.8268 24.1965 58.629 21.3681 52.9725C18.5301 47.2969 20.7124 40.307 26.3933 37.2483L26.4008 37.2442L26.4082 37.2399C29.1236 35.656 31.8409 34.2973 34.5744 32.9306L34.5996 32.918L34.6233 32.9026L34.3508 32.4834C34.6233 32.9026 34.6234 32.9025 34.6236 32.9024L34.6244 32.9019L34.6272 32.9001L34.6376 32.8933L34.678 32.8668C34.7134 32.8435 34.7656 32.809 34.8338 32.7636C34.9701 32.6729 35.17 32.5386 35.4261 32.3636C35.9382 32.0136 36.6748 31.5005 37.5753 30.8466C39.3759 29.539 41.8341 27.667 44.4645 25.4084C49.4496 21.128 55.1103 15.4118 58.0452 9.4864L68.0506 28.8435L78.0605 48.2093Z" fill="#D5DCEB" stroke="#9DADD0"/>
<path d="M47.2855 60.9756C47.9706 62.2707 47.4467 63.8895 46.1572 64.5775C44.8677 65.2655 43.2558 64.7393 42.5708 63.4443L32.98 44.8281C32.3353 43.533 32.8591 41.9142 34.1486 41.2263C35.4382 40.5383 37.05 41.0644 37.7351 42.3594L47.2855 60.9756Z" fill="#9DADD0"/>
<path d="M45.8316 54.0499L34.6339 32.3004L30.5753 34.3581L26.6096 36.5007L37.7775 58.2322L45.8316 54.0499Z" fill="#9DADD0"/>
<path d="M81.1457 47.1952C81.7501 48.3689 81.3069 49.8258 80.098 50.4733C78.9293 51.0804 77.4786 50.6352 76.8339 49.4211L56.6047 10.1652C56.0002 8.99153 56.4435 7.5346 57.6524 6.88708C58.821 6.28003 60.2717 6.7252 60.9165 7.9393L81.1457 47.1952Z" fill="#9DADD0"/>
<line x1="78.4922" y1="12.2662" x2="83.786" y2="3.31689" stroke="#4866A7" stroke-width="1.8" stroke-linecap="round"/>
<line x1="99.099" y1="29.9977" x2="88.7154" y2="29.9977" stroke="#4866A7" stroke-width="1.8" stroke-linecap="round"/>
<line x1="0.9" y1="-0.9" x2="11.8659" y2="-0.9" transform="matrix(0.866039 -0.499977 0.500023 0.866012 85.0205 22.8447)" stroke="#4866A7" stroke-width="1.8" stroke-linecap="round"/>
</svg>
