<svg width="102" height="102" viewBox="0 0 102 102" fill="none" xmlns="http://www.w3.org/2000/svg">
<path d="M11 8C11 5.79086 12.7909 4 15 4H54.3333H65.042C66.0173 4 66.959 4.35634 67.69 5.002L78.7778 14.7955L89.648 24.3968C90.5077 25.156 91 26.2478 91 27.3948V47.1818V95C91 97.2091 89.2091 99 87 99H15C12.7909 99 11 97.2091 11 95V8Z" fill="#D5DCEB"/>
<mask id="mask0_1691_4923" style="mask-type:alpha" maskUnits="userSpaceOnUse" x="10" y="4" width="82" height="95">
<path d="M10.7363 8C10.7363 5.79086 12.5272 4 14.7363 4H54.2329H64.9982C65.9671 4 66.9031 4.35171 67.6323 4.98978L78.7694 14.7355L89.6718 24.2757C90.5398 25.0353 91.0377 26.1325 91.0377 27.2859V46.9419V94.4722C91.0377 96.6814 89.2468 98.4722 87.0377 98.4722H14.7363C12.5272 98.4722 10.7363 96.6814 10.7363 94.4722V8Z" fill="#D5DCEB"/>
</mask>
<g mask="url(#mask0_1691_4923)">
<path d="M65.0579 4H92.2544V25.471H67.0579C65.9533 25.471 65.0579 24.5755 65.0579 23.471V4Z" fill="#9DADD0"/>
</g>
<rect x="39" y="73" width="40" height="9" rx="4.5" fill="#4866A7"/>
<rect x="22" y="73" width="10" height="9" rx="4.5" fill="#4866A7"/>
<rect x="39" y="54" width="40" height="9" rx="4.5" fill="#4866A7"/>
<rect x="22" y="54" width="10" height="9" rx="4.5" fill="#4866A7"/>
<rect x="22" y="35" width="10" height="9" rx="4.5" fill="#4866A7"/>
<rect x="39" y="35" width="40" height="9" rx="4.5" fill="#4866A7"/>
</svg>
