<svg width="102" height="102" viewBox="0 0 102 102" fill="none" xmlns="http://www.w3.org/2000/svg">
<path d="M34.1357 14.2002H86.8681C95.1219 14.2002 102 21.0244 102 29.2133V56.51C102 60.6045 100.166 64.699 97.4146 67.4286C92.8292 71.9781 87.7852 71.9781 86.4096 71.9781C85.951 71.9781 85.951 71.9781 85.4925 71.9781C85.4925 79.7121 85.4925 87.9011 85.4925 95.6351C85.4925 96.0901 85.0339 97 84.1168 97C83.6583 97 83.6583 97 83.1998 96.545C74.4875 88.356 66.2337 80.1671 57.5214 71.9781C49.7262 71.9781 41.4724 71.9781 33.6772 71.9781C25.4234 71.9781 18.5453 65.1539 18.5453 56.9649V29.6683C19.0038 21.0244 25.882 14.2002 34.1357 14.2002Z" fill="#4866A7"/>
<path d="M67.8643 5H15.1319C6.87813 5 0 11.8242 0 20.0131V47.3098C0 51.4043 1.83417 55.4988 4.58542 58.2284C9.17085 62.7779 14.2148 62.7779 15.5904 62.7779C16.049 62.7779 16.049 62.7779 16.5075 62.7779C16.5075 70.5119 16.5075 78.7009 16.5075 86.435C16.5075 86.8899 16.9661 87.7998 17.8832 87.7998C18.3417 87.7998 18.3417 87.7998 18.8002 87.3448C27.5125 79.1559 35.7663 70.9669 44.4786 62.7779C52.2738 62.7779 60.5276 62.7779 68.3228 62.7779C76.5766 62.7779 83.4547 55.9537 83.4547 47.7647V20.4681C82.9962 11.8242 76.118 5 67.8643 5Z" fill="#D5DCEB"/>
<ellipse cx="22.022" cy="33.75" rx="5.79547" ry="5.74998" fill="#4866A7"/>
<ellipse cx="41.7281" cy="33.75" rx="5.79547" ry="5.74998" fill="#4866A7"/>
<ellipse cx="61.4322" cy="33.75" rx="5.79547" ry="5.74998" fill="#4866A7"/>
</svg>
