<svg width="102" height="102" viewBox="0 0 102 102" fill="none" xmlns="http://www.w3.org/2000/svg">
<g clip-path="url(#clip0_1219_3768)">
<rect x="8" y="4" width="85.914" height="92.9893" rx="13" fill="#D5DCEB"/>
<rect x="18.1074" y="62.624" width="33.3548" height="9.09677" rx="4.54839" fill="#9DADD0"/>
<rect x="18.1074" y="45.4404" width="56.6021" height="9.09677" rx="4.54839" fill="#9DADD0"/>
<rect x="18.1074" y="18.1504" width="65.6989" height="19.2043" rx="2" fill="#9DADD0"/>
<path d="M36.3013 103.053C45.0844 89.2486 53.4938 79.1759 59.7728 72.3538C67.0984 64.3679 72.0693 60.3147 75.2088 57.9069C81.3009 53.2117 86.9072 50.0012 91.0932 47.8743C87.2062 48.9579 81.7868 50.8841 75.8441 54.4156C68.4812 58.7095 63.772 63.4047 58.5395 68.742C54.4282 72.9156 49.2331 78.7345 43.851 86.3993C43.1783 84.2323 42.3934 80.6607 42.6177 76.2464C42.954 70.8288 44.7107 67.0566 46.0188 64.3277C46.0188 64.3277 50.2422 55.4991 56.9323 52.3689C57.3808 52.1683 58.39 51.6867 58.988 52.1683C59.5486 52.6097 59.3991 53.6932 59.3617 53.9741C61.4921 52.0479 63.3608 50.6032 64.7064 49.5999C64.7064 49.5999 72.2935 44.0218 79.7685 43.6607C80.0675 43.6607 80.4786 43.6607 80.815 43.9817C81.5252 44.6639 81.0393 46.2691 80.9272 46.7106C83.805 44.5837 86.4587 43.6205 88.2153 43.139C89.7477 42.7377 95.6529 41.2127 100.474 44.3027C101.521 44.985 101.782 45.3863 101.895 45.7073C103.016 48.998 94.8681 54.7366 93.5599 55.6596C94.1579 55.3386 95.5782 54.6563 96.9237 55.2583C97.1853 55.3787 97.4843 55.4991 97.6712 55.78C98.7925 57.4253 93.6347 64.6889 87.393 69.6249C85.2627 71.3104 82.0858 73.4373 77.7503 75.1629C78.124 75.0425 79.1331 74.8017 80.1049 75.3635C80.5534 75.6043 80.9272 76.0056 81.0393 76.2865C81.7494 77.7713 77.9371 82.1455 73.1905 85.4362C71.845 86.3592 66.5004 89.9308 58.0536 91.4557C53.6807 92.2583 49.9432 92.2182 47.4017 92.0577C44.8975 95.0675 42.4308 98.0772 39.9267 101.087C38.6559 101.649 37.4973 102.331 36.3013 103.053Z" fill="#4866A7"/>
</g>
<defs>
<clipPath id="clip0_1219_3768">
<rect width="102" height="102" fill="white"/>
</clipPath>
</defs>
</svg>
